<?xml version="1.0" encoding="utf-8"?>
<svg viewBox="113.095 67.913 263.99 217.748" xmlns="http://www.w3.org/2000/svg">
  <g class="building-path" fill="none" fill-rule="evenodd" transform="matrix(1.709536, 0, 0, 1.709536, 116.692978, 69.627747)" style="">
    <path d="m40.984 17.756-8.948 8.027v12.97L8.85 50.905l-7.834 7.408v27.312l7.317 6.321v11.121l15.312 13.225 7.994-4.214 7.009 6.053 10.165-5.359v-9.749L74.34 89.635l10.083 8.711v15.637l10.745 9.28 17.938-9.456 7.176-3.783 7.176-3.785 7.176-3.783 14.351-7.566V67.577l-7.899-6.846L72.248 1.272z" style="fill: rgba(226, 226, 226, 0.08);"/>
    <path d="m38.621 90.82 1.234-13.11m-6.794-5.866 6.794 5.865m-8.247 7.056 7.013 6.054m38.31-42.015 28.424 24.534M74.34 62.323l19.68 16.99m2.162 5.1-4.49-3.876M72.245 1.272 40.96 17.756m11.711 10.11-11.71-10.11m100.173 42.975L72.246 1.272M.962 58.312l7.84-7.408m87.38 33.51 44.951-23.683m-45.95 35.223.998-11.54m-79.49-16.43 7.388-3.892M76.93 48.804l-43.869 23.04m-9.454 17.137 2.065-13.245M24.08 64.092 8.802 50.904m140.236 16.673-7.905-6.846M32.004 25.783l8.955-8.027m-15.287 57.98-8.982-7.752m78.492 27.97 17.952-9.459m-17.952 36.768 17.952-9.456m35.904-18.918V67.577m-125.43 48.716L8.283 103.067m86.898-7.113L84.43 86.671m-10.09 2.965-25.545 13.387M74.34 89.636V62.323m0 0L41.801 79.395m-18.194 9.586L8.284 75.754m86.898 47.51v-27.31m0 27.31-10.753-9.28M74.34 89.635l10.09 8.71m-60.822 17.947V88.981m-9.102-18.978L.962 58.313m30.646 53.764-8 4.216m8-4.216V84.765m0 0-8 4.216M.961 85.625V58.312m40.372-24.476-9.33-8.053m16.79 59.676-10.173 5.36m10.173 21.952-10.173 5.36m-7.013-6.054 7.013 6.054M8.284 91.945l-7.322-6.32m31.042-46.872v-12.97m6.617 92.348V90.82m-5.56-18.975-7.389 3.892M84.43 86.671l7.261-6.134m35.806 25.701 7.18-3.783m-14.993 7.893v-7.683m.632 7.36 7.181-3.787m-14.362 7.57 7.181-3.784m13.136-6.943V76.087m-6.588 30.475v-7.68m7.813 3.573 14.362-7.566m-14.362-19.746 14.362-7.566m-35.904 18.918 21.542-11.352m-14.993 27.522 7.18-3.783M39.855 77.71l1.946 1.686m0 0 6.993 6.064m-40.51-9.705 6.221-5.75m0 0 2.185-2.02m75 12.553 2.33-1.225m0 0 11.335-5.974M8.802 50.904l23.202-12.15m52.425 75.23V98.345m0 0V86.671M8.284 75.754v16.191m0 0v11.122m40.51 9.704v-9.748m0 0V85.46m-16.79-46.706 9.33-4.917m0 0 11.336-5.97m59.24 86.567V87.351m-22.105 8.227v3.416m0 4.267v3.412m0 4.27v3.413m-46.098-21.95v3.413m0 4.27v3.413m0 4.267v3.415m-27.76-24.549v3.415m0 4.267v3.413m0 4.267v3.415m51.211-35.036v3.413m0 4.267v3.415m0 4.268v3.412m-7.18-14.992v3.413m0 4.267v3.416m0 4.267v3.412m-7.182-14.992v3.413m0 4.27v3.413m0 4.267v3.415M79.95 71.435v3.413m0 4.267v3.416m0 4.267v3.412m5.611-13.933v3.413" stroke="#7D7D7D" stroke-linecap="round" stroke-linejoin="round" style="fill: rgba(226, 226, 226, 0.08);"/>
  </g>
</svg>