<?xml version="1.0" encoding="utf-8"?>
<svg viewBox="99.926 163.501 318.044 246.786" xmlns="http://www.w3.org/2000/svg">
  <g class="building-path" fill="none" fill-rule="evenodd" transform="matrix(1.576084, 0, 0, 1.576084, 105.096634, 167.077728)" style="">
    <path d="M6.996 26.504v13.019l23.293 20.121L.559 75.317v13.02l24.023 20.752v9.064l24.432 21.102 6.516-3.436 18.325 15.829 27.361-14.427 6.107 5.275 11.729-6.184v-13.017l-6.108-5.275-18.324-15.829v-4.649L85.409 86.08l16.051-8.461 15.637-8.243 6.107 5.276 48.862 42.206 23.453-12.367V83.104l-48.862-42.206-.024-.026-11.725 1.535L123.18 53.24l.024.022v5.367h-.024L56.108.692z" style="fill: rgba(226, 226, 226, 0.09);"/>
    <path d="M183.845 84.639 134.93 42.408l48.915 42.23Zm-60.626-31.376 48.891 42.209-48.891-42.21Zm48.891 42.209 11.735-10.833-11.735 10.833Zm-48.891-20.82v-21.39 21.39Zm-6.112-15.29 6.112 5.277-6.112-5.276Zm0 10.015V59.363v10.014Zm0 0 6.112 5.275-6.112-5.275Zm78.47 35.114V83.104v21.387ZM73.84 151.648l27.377-14.427-27.377 14.427Zm98.27-34.79 23.467-12.367-23.467 12.368ZM.5 88.338v-13.02 13.02Zm0 0 24.038 20.752L.5 88.337Zm69.67-11.9V72.72v3.718ZM56.082.693 6.941 26.505 56.082.692Zm127.763 83.947 11.732-1.535-11.732 1.535ZM123.194 53.24l11.736-10.833-11.736 10.833Zm11.736-10.833 11.732-1.535-11.732 1.535ZM85.401 86.08l16.061-8.461-16.061 8.46Zm9.216 16.11v-4.648 4.649Zm77.493 14.668V95.472v21.387Zm-48.891-42.207 48.891 42.207-48.891-42.207ZM6.941 39.524v-13.02 13.02Zm106.011 78.497-18.335-15.83 18.335 15.83ZM6.941 39.524l23.307 20.12-23.307-20.12ZM.5 75.318l30.558 26.38L.5 75.318Zm55.005 47.485 18.335 15.826-18.335-15.826ZM39.611 54.71 6.941 26.505l32.67 28.205Zm155.966 28.394-48.891-42.206 48.891 42.206Zm-140.072 35.05 19.556-10.306-19.556 10.306ZM70.17 76.438l12.224 5.905-12.224-5.905Zm-39.112 20.61 19.556-10.304-19.556 10.305Zm12.223 5.903 39.113-20.608-39.113 20.608Zm31.78 4.897 19.556-10.305-19.556 10.305Zm32.268 21.632v13.017-13.017Zm11.735 6.833v-13.017 13.017Zm-17.847.908 6.112 5.276-6.112-5.276Zm0-13.02 6.112 5.279-6.112-5.278Zm6.112 5.279 11.735-6.184-11.735 6.184Zm5.623-11.46 6.112 5.276-6.112-5.275Zm-11.735 6.182v13.019-13.02Zm-45.712 11.617-6.52 3.436 6.52-3.436Zm67.689-77.19L56.082.692l67.112 57.937Zm-6.087.734-8.343.167 8.343-.167ZM39.611 54.71 66.825 78.2 39.611 54.71Zm0 0v-8.37 8.37Zm15.894 68.093v13.016-13.016Zm0 13.016 18.335 15.829-18.335-15.83Zm18.335 15.829v-13.02 13.02Zm-49.302-33.494 24.447 21.1-24.447-21.1Zm24.447 8.082v13.019-13.02Zm-24.447-21.102 24.447 21.102-24.447-21.102Zm6.52-3.436-6.52 3.436 6.52-3.436Zm0 0v-4.65 4.65Zm0 0 24.447 21.105-24.447-21.105Zm24.447 21.105v-4.65 4.65Zm0-4.65-12.224-15.202 12.224 15.203Zm-12.224-15.202-12.223-5.902 12.223 5.902Zm5.704 23.285 6.52-3.433-6.52 3.433ZM70.17 72.72l31.292-16.487L70.17 72.72Zm19.928-27.523L71.763 29.37l18.335 15.826ZM70.17 72.72 39.611 46.34 70.17 72.72Zm38.594-20.348v7.158-7.158Zm-18.666-7.175 6.442-3.381 12.21 10.54-7.288 3.877-11.364-11.036Zm11.364 32.423 15.645-8.243-15.645 8.243Zm0-21.387V77.62 56.233Zm-.245 67.969 11.735-6.181-11.735 6.18Zm-18.823-41.86 3.007 3.739-3.007-3.738Zm3.007 3.739 9.216 11.462-9.216-11.462Zm-34.787.663L66.825 78.2l-16.211 8.543ZM66.825 78.2l3.345-1.763-3.345 1.763ZM39.611 54.71l-9.363 4.934 9.363-4.934Zm-9.363 4.934L.5 75.318l29.748-15.674Zm-5.71 58.51v-9.065 9.065Zm0-9.065v-3.955 3.955ZM71.763 29.37l-11.358 6.015 11.358-6.015Zm-11.358 6.015L39.611 46.34l20.794-10.954ZM73.84 138.629l27.377-14.427-27.377 14.427Zm33.489 3.868 11.735-6.184-11.735 6.184Zm34.222-68.756v3.718-3.718Zm0 8.367v3.722-3.722Zm-6.112-13.642v3.718-3.718Zm0 8.367v3.72-3.72Zm-6.111-13.643v3.718-3.718Zm0 8.368v3.72-3.72Zm18.335 7.459v3.72-3.72Zm0 8.37v3.718-3.718Zm18.335 7.459v3.718-3.718Zm0 8.367v3.72-3.72Zm-12.223-18.921v3.72-3.72Zm0 8.37v3.718-3.718ZM141.551 73.74v3.718-3.718Zm0 8.367v3.722-3.722Zm18.335 7.459v3.72-3.72Zm0 8.37v3.719-3.718ZM179.934 96v3.718V96Zm0 8.367v3.72-3.72Zm7.822-12.492v3.72-3.72Zm0 8.37v3.72-3.72ZM93.637 65.004v3.718-3.718Zm0 8.368v3.72-3.72Zm-7.821-4.246v3.718-3.718Zm0 8.367v3.72-3.72Zm-7.821-4.246v3.719-3.72Zm19.312 57.666v3.72-3.72Zm-7.821 4.122v3.72-3.72Zm-7.825 4.122v3.72-3.72Zm-20.045-6.43v3.72-3.72Zm6.112 5.276v3.72-3.72Zm-12.223-10.551v3.718-3.718Zm-36.67-31.656v3.72-3.72ZM6.612 85.246v3.718-3.718Zm6.111 5.275v3.718-3.718Zm30.15 30.44v13.019-13.02Zm-6.112-5.276v13.019-13.02Zm-6.108-5.275v13.019-13.02Zm78.63-45.282v3.719-3.72Zm-90.119-23.42v3.718-3.718Zm6.113 5.275V50.7v-3.718ZM13.053 36.432v3.718-3.718Zm0 0v3.718-3.718Zm12.224 10.55v3.719-3.718Zm-6.113-5.274v3.718-3.718Zm12.224 10.55v3.722-3.721Zm38.829 8.484c7.878 0 14.392-4.477 13.808-10.331-.274-2.772-1.33-5.81-3.567-7.862-2.898-2.66-6.77-4.52-11.402-4.52-4.631 0-8.262 1.872-10.875 4.52-2.025 2.056-2.769 5.09-2.763 7.862.015 5.854 6.921 10.33 14.799 10.33Z" stroke="#7D7D7D" stroke-linecap="round" stroke-linejoin="round" style="fill: rgba(226, 226, 226, 0.09);"/>
  </g>
</svg>