<?xml version="1.0" encoding="utf-8"?>
<svg viewBox="112.468 1.934 274.441 234.755" xmlns="http://www.w3.org/2000/svg">
  <g class="building-path" fill="none" fill-rule="evenodd" transform="matrix(1, 0, 0, 1, 116.623619, 5.136452)">
    <path d="M.481 81.924v19.321l22.298 21.928 4.14-2.485 26.948 26.498v6.554l22.3 21.925 4.138-2.482 26.95 26.5v6.551l22.299 21.925 10.482-6.29 3.715 3.653 39.957-23.98 9.292 9.134 34.249-20.557v-11.593l-1.969-1.936 32.636-19.587v-5.885l6.764-4.063v-19.32l-22.298-21.928-4.138 2.485-26.95-26.499V75.24l-22.299-21.925-4.138 2.485-26.95-26.5v-6.553L135.61.82.482 81.924ZM141.975 70.24l-13.841-13.76 6.537-3.925 18.887 18.57-11.582 6.951V70.24ZM65.473 94.087l11.58-6.948 18.886 18.57-11.582 6.951-18.884-18.573Z" style="fill: rgba(226, 226, 226, 0.09);"/>
    <path d="m242.383 105.807-4.14 2.485-26.948-26.498V75.24l-22.3-21.925-4.137 2.485-26.95-26.5v-6.553L135.61.821.482 81.924v19.321l22.299 21.927 4.138-2.485 26.95 26.5v6.554l22.298 21.925 4.138-2.483 26.95 26.498v6.553l22.298 21.925 10.483-6.29 3.716 3.653 39.957-23.98 9.29 9.134 34.249-20.557v-11.593l-1.967-1.936 32.636-19.587v-5.885l6.764-4.063v-19.32l-22.298-21.928ZM84.357 112.66 65.472 94.09l11.58-6.95 18.887 18.57-11.582 6.95Zm57.618-34.583V70.24l-13.841-13.76 6.537-3.925 18.885 18.57-11.581 6.951Z" stroke="#FFF" stroke-width=".963"/>
    <path d="M77.053 87.139V67.816m0 19.323 18.885 18.57m93.058-52.395 22.298 21.925m35.205 69.292v19.323m-11.415-12.47v19.32m5.707-22.745v19.32m-11.417-12.47v19.324m22.833-33.028v19.324m12.474-13.373v-19.321m-53.387-52.496-4.137 2.485m27.927 92.98-5.71 3.429m35.307-27.077-6.765 4.062m-5.71 9.31-5.707 3.426m11.417-6.851-5.71 3.426m-11.415 6.85-5.707 3.426M188.996 53.314l-4.138 2.485m44.516 118.334-4.093 2.457m-1.615-18.355v16.768m22.833-11.15-5.708 3.427m-133.536 19.63 4.138-2.482m-35.226-8.762 4.138-2.483m0 0V153.86m63.447 52.34v19.322M22.78 123.172l4.139-2.484m0 0v-19.321M178 185.644v19.323m0 0 5.708-3.426m0-19.323v19.323M80.305 173.183l26.95 26.499m32.78 22.186 3.717 3.654M53.868 153.74l22.299 21.925m73.293 27.107 5.708-3.425m0 0 5.708-3.426m0 0 5.709-3.425m0 0 5.708-3.428m0 0 5.708-3.425M26.919 120.688l26.949 26.498m75.685 80.973v-19.321m-22.146-21.778 22.146 21.778m-22.298-2.604 22.298 21.925m-49.248-74.3 31.088 30.569m-84.474-83.061 31.088 30.568m108.578 60.562v19.32m0 0 5.708-3.425m0-19.323v19.323m15.133-22.52-3.717-3.654M.482 101.245l22.298 21.928m149.513 85.219 5.708-3.425m-28.541-2.194v19.324m0 0 5.708-3.426m0-19.323v19.323m-25.615-9.833 10.482-6.291m-10.482 25.612 10.482-6.291M193 210.677l-5.574-5.481m-26.55 10.05 5.709-3.428m-11.417 6.853 5.708-3.425m0-19.324v19.324M153.77 25.23l4.138-2.485m80.335 85.546 4.14-2.485m-20.707 59.51-3.717-3.654m24.424-55.856 22.298 21.928m0 0-10.482 6.29m-42.905-52.231v-6.555m-23.868 129.957-3.717-3.655m3.717-15.67v7.73m-47.391 8.946v19.32m3.717-15.666-3.717-3.654M178 185.644l5.708-3.426m0 0-3.716-3.654m-39.958 23.983 39.958-23.983m41.683-5.52v-7.727M193 210.677v-11.595m34.248-8.963L193 210.677m34.248-20.558v-11.592m-39.822 7.345 10.668-29.35m0 0 23.582 8.795m0 0-34.25 20.555M53.868 134.418l22.299 21.925m0 19.323v-19.323m0 0 4.138-2.483m-26.437-19.442 4.139-2.483m-35.227-8.762V103.85M.482 81.925 22.78 103.85M.482 101.245v-19.32M22.78 103.85l4.139-2.483m130.989-78.621L135.608.82m22.3 28.477v-6.552m94.299 118.359-5.708 3.426m11.417-6.851-5.71 3.425m-5.707 3.426-5.708 3.428m0 0-5.707 3.425m0 0-5.71 3.426m0 0-5.708 3.425m34.25-20.555-3.717-3.654m-30.533 24.209-5.707 3.428m0 0-3.718-3.657m39.958-23.98-39.958 23.98M143.75 206.2l5.709-3.428m-5.708 22.749 5.708-3.425M128.133 56.48l6.538-3.925m58.144 146.156 17.957-15.671m15.965-4.767-15.965 4.767m10.904-9.995-16.478 4.513M187.426 193.6l17.772-16.043M193 199.082l-5.574-5.481m23.346-10.561-5.574-5.482M187.426 193.6v11.595m5.574-6.114 34.248-20.555M135.608.82l-1.147 8.328m129.494 118.763-22.998-14.25m-51.961-60.348-1.98 7.639m-29.874-37.95L134.46 9.149m107.922 96.658-1.426 7.855M210.77 75.554l-23.754-14.601m-52.345-27.72 31.088 30.569M54.587 134.697l17.968-4.862m35.38 57.225 17.093-4.02m-48.861-26.697-3.612-26.508m56.998 79.003-4.525-25.798M22.78 103.85l-2.203-26.374M115.93 44.48l18.74-11.247M1.15 82.243l19.426-4.767M134.67 52.555V33.234m61.012 100.6-31.088-30.567m0 0 23.576-14.15m0 0 31.089 30.568m0 0-23.577 14.15m-83.043 1.345 24.673-15.284m0-.001 31.088 30.569m0 0-24.674 15.283m0 0L112.64 135.18M26.084 74.195l52.555 51.807m0 0 53.943 52.709m-2.194-167.117 52.555 51.805m0 0 53.942 52.708m-164.33 13.728 110.388-66.436m0 0 4.073-2.446M125.028 183.04l7.554-4.33m0 0 108.375-65.048M20.577 77.476l5.507-3.281m104.304-62.601 4.073-2.446M26.084 74.195l104.304-62.601m11.586 66.482V70.24M108.14 98.384v-7.838M140.38 68.52l1.594 1.72M108.14 90.546 77.053 59.978m64.92 10.262-33.832 20.306m149.775 47.134v13.438m0 0v5.885m-150.661 49.23v-6.551m0 0V186.91m77.603-131.112-26.95-26.5m0-.001-4.138-4.067m84.473 83.06-26.95-26.497m0 0-4.136-4.07M53.867 153.74v-6.555m0 0v-12.768m173.38 44.109-1.966-1.937M165.759 63.802l-12.203 7.323m-69.2 41.535L65.472 94.088m0 0L53.269 82.092m31.088 30.568 11.58-6.951M77.054 67.816v-7.838m63.327 8.542-12.247-12.04m97.148 120.11-1.615-1.587m0 0-1.99-1.958M128.133 56.48l-12.202-12m0 0-6.64-6.528M.482 81.925 135.61.82m17.947 70.304-11.582 6.95M108.14 98.385l33.833-20.308M108.14 98.384l-12.203 7.325M77.053 67.816 53.269 82.092M65.47 94.088l11.582-6.95m57.618-34.583 18.885 18.57m44.538 85.397L133.819 93.44m-48.85 71.37v4.548m0 0v4.545m0-9.093v-2.502m4.46 6.886v4.548m0 0v4.546m0-9.094v-2.5m4.46 6.887v4.546m0 0v4.545m0-9.091v-2.501m4.46 6.886v4.545m0 0v4.548m0-9.093v-2.502m4.459 6.886v4.548m0 0v4.546m0-9.094v-2.5m-66.766-63.15v4.549m0 0v4.546m0-9.094v-2.5m8.92 11.272v4.545m0 0v4.546m0-9.091v-2.502m-4.46-1.885v4.548m0 0v4.545m0-9.093v-2.5" stroke="#7D7D7D" stroke-width=".963" stroke-linecap="round" stroke-linejoin="round"/>
    <path d="M49.422 129.858v4.546m0 0v4.547m0-9.093v-2.501m-17.84-15.039v4.545m0 0v4.548m0-9.093v-2.502m167.126 85.84v11.595m5.71-15.02v11.592m5.707-15.018v11.593m5.708-15.02v11.594m5.708-15.02v11.595M77.053 59.978c.257-2.003 3.582-11.684 15.909-19.087 12.436-7.47 16.33-2.939 16.33-2.939m-1.151 52.594c.797-3.578 4.347-12.417 15.944-19.321 12.467-7.422 17.453-1.204 17.453-1.204" stroke="#7D7D7D" stroke-width="1.021" stroke-linecap="round" stroke-linejoin="round"/>
  </g>
</svg>