<?xml version="1.0" encoding="utf-8"?>
<svg viewBox="90.421 12.984 279.443 191.914" xmlns="http://www.w3.org/2000/svg">
  <g class="building-path" fill="none" fill-rule="evenodd" transform="matrix(1.287139, 0, 0, 1.287139, 95.921021, 18.319345)" style="">
    <path d="m28.856 43.799-7.057 3.763v18.139l9.301 8.032-10.48 5.525-.012.024L.716 95.685v18.138l31.08 26.847 11.813.978 165.754-87.395V36.115L177.167 8.304l-35.466 18.699.009.068L110.96.51z" style="fill: rgba(226, 226, 226, 0.11);"/>
    <path d="m43.58 141.648-11.819-.979m0 0L.665 113.823m30.4-40.091L21.758 65.7m147.761.074-15.548-15.395m15.64 24.849V57.089m-15.64-13.414 15.64 13.414m-15.64-13.414v6.704m-10.986 29.378v9.463m0-9.463v-8.675m-6.633 3.496 6.633-3.496m-6.633 3.496v18.138m-6.635-14.642 6.635-3.496m-6.635 3.496v18.138m-6.838-20.721 19.684-4.759M95.286 51.563l27.8 24.092M110.963.509l30.763 26.561M110.963.509 28.82 43.799m29.43 20.304 65.074-34.295M37.925 46.56l20.323 17.543m2.855 28.514 26.535-13.984m-58.686 7.888 66.334-34.958m17.878-38.414-10.16-4.828m20.32 17.543-10.16-12.715m10.16 16.659v-3.944M177.2 8.304l-35.483 18.699m29.387-2.021-28.95 2.303m29.01-2.335 6.036-16.646m-54.115 73.265-6.635 3.496m6.635-3.496 6.632-3.495m-6.632-2.419-20.288 15.911m7.021-3.005-6.633 3.496m13.265-6.992-6.632 3.496m-6.633 3.496L87.638 78.633m-55.877 43.898v18.138M.665 95.684l31.096 26.847M.665 113.823V95.684m109.154-7.123v18.138m6.632-21.634v18.139m26.535-23.447 26.534-13.983m-15.548-15.395-21.71 11.442m-29.076 48.288V92.057m50.786-48.382-26.534 13.984m-83.859 65.85v18.139m44.06-56.311v-6.704M65.925 96.779l21.712-11.442m35.448-3.768v18.139M20.568 79.282l8.384 7.239M58.248 60.16l65.075-34.296M48.087 47.445l65.077-34.296M48.087 47.445 58.248 60.16m83.47-33.067-46.432 24.47M20.568 79.282.665 95.684m31.096 26.847L42.282 97.95m-10.52 24.581 11.817.978m59.607-22.777-26.44 13.934m26.44-13.934L87.638 85.337m-58.686 1.184 13.33 11.429m0 0 34.464 8.08m-38.82-59.47v-3.943m65.077-34.296L37.925 42.617m20.323 21.486V60.16M28.82 43.799l-7.06 3.762m0 18.139V47.561m16.166-4.944 10.162 4.828m-3.979 19.412L21.76 47.561m187.652 6.692V36.114m-66.425 34.968-10.725-9.261m0 0-4.823-4.162M31.064 73.732 20.58 79.258m40.524 13.359 4.823 4.162m0 0 10.82 9.251m0 18.139v-3.002m77.226-77.492L141.726 27.07m-.008.023v-.09m-97.61 39.854-13.044 6.875m45.682 47.435v-9.464m0 0v-5.673M177.201 8.304l32.21 27.81M43.58 141.648l165.832-87.395M76.746 106.03 43.58 123.509m126.033-66.42 39.8-20.975m-39.8 20.975 8.578-25.049 31.221 4.074M26.58 122v3.154m0 3.943v3.155m-15.548-23.676v3.155m0 3.943v3.155M26.58 122v3.154m0 3.943v3.155m-20.73-28.15v3.154m0 3.944v3.154m15.547 3.171v3.155m0 3.943v3.154m-5.183-14.726v3.154m0 3.943v3.155m40.631-2.842v3.155m0 3.943v3.154m-6.633-6.756v3.154m0 3.944v3.154m19.9-20.74v3.155m0 3.943v3.155m-6.632-6.757v3.155m0 3.943v3.154m-25.81-.254v3.155m0 3.943v3.155m45.615-23.631v3.154m6.635-6.65v3.155m6.632-6.651v3.155m66.334-38.113v3.155m-13.267 3.837v3.155m6.635-6.651v3.155m26.626-24.245v3.154m0 3.943v3.155m-6.635-6.756v3.154m0 3.943v3.155m13.268-17.244v3.154m0 3.943v3.155m6.635-13.748v3.155m0 3.943v3.154m-158.84 7.627v3.154m-5.183-7.629v3.155m0 3.943v3.154m-5.182-14.726v3.154m0 3.943v3.155M202.78 43.553v3.155m0 3.943v3.155m-31.674-28.824 7.085 7.058" stroke="#7D7D7D" stroke-linecap="round" stroke-linejoin="round" style="fill: rgba(226, 226, 226, 0.11);"/>
  </g>
</svg>